<svg xmlns="http://www.w3.org/2000/svg" xmlns:xlink="http://www.w3.org/1999/xlink" width="1920" zoomAndPan="magnify" viewBox="0 0 1440 809.999993" height="1080" preserveAspectRatio="xMidYMid meet" version="1.0"><defs><g/><clipPath id="a8b16895b1"><rect x="0" width="1280" y="0" height="518"/></clipPath></defs><rect x="-144" width="1728" fill="#ffffff" y="-80.999999" height="971.999992" fill-opacity="1"/><rect x="-144" width="1728" fill="#a6a6a6" y="-80.999999" height="971.999992" fill-opacity="1"/><g transform="matrix(1, 0, 0, 1, 128, 162)"><g clip-path="url(#a8b16895b1)"><g fill="#ffffff" fill-opacity="1"><g transform="translate(1.118692, 368.79937)"><g><path d="M 96.03125 -107.484375 L 95.65625 -107.109375 L 95.65625 0 L 18.46875 0 L 18.46875 -270.734375 L 95.65625 -270.734375 L 95.65625 -196.484375 L 144.046875 -270.734375 L 202.03125 -270.734375 L 144.78125 -182.453125 L 212 0 L 134.4375 0 Z M 96.03125 -107.484375 "/></g></g></g><g fill="#ffffff" fill-opacity="1"><g transform="translate(205.711915, 368.79937)"><g><path d="M 134.8125 -279.59375 C 155.488281 -279.59375 173.585938 -275.53125 189.109375 -267.40625 C 204.367188 -259.03125 217.171875 -248.070312 227.515625 -234.53125 C 237.859375 -220.988281 245.613281 -205.597656 250.78125 -188.359375 C 255.957031 -171.128906 258.546875 -153.523438 258.546875 -135.546875 C 258.546875 -117.328125 255.957031 -99.597656 250.78125 -82.359375 C 245.613281 -65.128906 237.859375 -49.742188 227.515625 -36.203125 C 217.171875 -22.648438 204.367188 -11.8125 189.109375 -3.6875 C 173.585938 4.675781 155.488281 8.859375 134.8125 8.859375 C 114.125 8.859375 96.148438 4.675781 80.890625 -3.6875 C 65.378906 -11.8125 52.453125 -22.648438 42.109375 -36.203125 C 31.765625 -49.742188 24.007812 -65.128906 18.84375 -82.359375 C 13.664062 -99.597656 11.078125 -117.328125 11.078125 -135.546875 C 11.078125 -153.523438 13.664062 -171.128906 18.84375 -188.359375 C 24.007812 -205.597656 31.765625 -220.988281 42.109375 -234.53125 C 52.453125 -248.070312 65.378906 -259.03125 80.890625 -267.40625 C 96.148438 -275.53125 114.125 -279.59375 134.8125 -279.59375 Z M 134.8125 -32.5 C 139.976562 -32.5 145.023438 -34.46875 149.953125 -38.40625 C 154.878906 -42.351562 159.3125 -48.507812 163.25 -56.875 C 167.1875 -65.25 170.390625 -75.960938 172.859375 -89.015625 C 175.066406 -101.816406 176.171875 -117.328125 176.171875 -135.546875 C 176.171875 -153.523438 175.066406 -169.039062 172.859375 -182.09375 C 170.390625 -195.132812 167.1875 -205.84375 163.25 -214.21875 C 159.3125 -222.59375 154.878906 -228.75 149.953125 -232.6875 C 145.023438 -236.625 139.976562 -238.59375 134.8125 -238.59375 C 129.632812 -238.59375 124.585938 -236.625 119.671875 -232.6875 C 114.742188 -228.75 110.3125 -222.59375 106.375 -214.21875 C 102.4375 -205.84375 99.359375 -195.132812 97.140625 -182.09375 C 94.671875 -169.039062 93.4375 -153.523438 93.4375 -135.546875 C 93.4375 -117.328125 94.671875 -101.816406 97.140625 -89.015625 C 99.359375 -75.960938 102.4375 -65.25 106.375 -56.875 C 110.3125 -48.507812 114.742188 -42.351562 119.671875 -38.40625 C 124.585938 -34.46875 129.632812 -32.5 134.8125 -32.5 Z M 134.8125 -32.5 "/></g></g></g><g fill="#ffffff" fill-opacity="1"><g transform="translate(475.305009, 368.79937)"><g><path d="M 231.203125 0 L 153.640625 0 L 115.234375 -115.96875 L 95.65625 -115.96875 L 95.65625 0 L 18.46875 0 L 18.46875 -270.734375 L 115.234375 -270.734375 C 129.765625 -270.734375 143.554688 -269.5 156.609375 -267.03125 C 169.410156 -264.320312 180.613281 -260.015625 190.21875 -254.109375 C 199.8125 -247.953125 207.441406 -239.945312 213.109375 -230.09375 C 218.773438 -220.25 221.609375 -208.0625 221.609375 -193.53125 C 221.609375 -177.53125 218.285156 -164.484375 211.640625 -154.390625 C 204.984375 -144.046875 195.992188 -135.921875 184.671875 -130.015625 Z M 95.65625 -154.75 C 103.78125 -154.75 111.046875 -155.859375 117.453125 -158.078125 C 123.609375 -160.296875 128.78125 -163.25 132.96875 -166.9375 C 136.90625 -170.382812 139.984375 -174.445312 142.203125 -179.125 C 144.171875 -183.5625 145.15625 -188.242188 145.15625 -193.171875 C 145.15625 -198.085938 144.171875 -202.890625 142.203125 -207.578125 C 139.984375 -212.253906 136.90625 -216.4375 132.96875 -220.125 C 128.78125 -223.570312 123.609375 -226.40625 117.453125 -228.625 C 111.046875 -230.84375 103.78125 -231.953125 95.65625 -231.953125 Z M 95.65625 -154.75 "/></g></g></g><g fill="#ffffff" fill-opacity="1"><g transform="translate(710.182788, 368.79937)"><g><path d="M 239.328125 -270.734375 L 162.140625 0 L 84.578125 0 L 7.390625 -270.734375 L 84.578125 -270.734375 L 132.96875 -101.5625 L 181.34375 -270.734375 Z M 239.328125 -270.734375 "/></g></g></g><g fill="#ffffff" fill-opacity="1"><g transform="translate(919.945313, 368.79937)"><g><path d="M 139.984375 -77.1875 L 87.53125 -77.1875 L 65.375 0 L 7.390625 0 L 84.578125 -270.734375 L 162.140625 -270.734375 L 239.328125 0 L 162.140625 0 Z M 128.90625 -115.96875 L 113.765625 -169.15625 L 98.609375 -115.96875 Z M 128.90625 -115.96875 "/></g></g></g><g fill="#ffffff" fill-opacity="1"><g transform="translate(1166.643556, 368.79937)"><g/></g></g></g></g></svg>